<svg width="240" height="240" viewBox="0 0 240 240" fill="none" xmlns="http://www.w3.org/2000/svg">
<g filter="url(#filter0_i_5579_103912)">
<path d="M186.836 193.992C186.836 199.417 182.438 203.816 177.013 203.816L65.6813 203.816C60.2561 203.816 55.858 199.417 55.858 193.992L55.858 81.0237L186.836 81.0237L186.836 193.992Z" fill="#F6F6F6"/>
</g>
<path d="M103.419 115.212V174.234H98.5073V120.778L90.3212 126.508L87.5379 122.743L98.5073 115.212H103.419ZM135.163 170.468C143.594 170.468 149.57 164.492 149.57 155.815C149.57 147.137 143.594 141.08 135.163 141.08C126.976 141.08 121.164 147.137 121.164 155.815C121.164 164.492 126.976 170.468 135.163 170.468ZM116.253 155.815C116.253 151.804 117.399 148.202 119.036 145.255L136.309 115.13H141.957L128.941 137.723C130.906 137.069 133.034 136.659 135.244 136.659C146.541 136.659 154.482 144.6 154.482 155.815C154.482 167.03 146.541 174.888 135.244 174.888C124.111 174.888 116.253 167.03 116.253 155.815Z" fill="#707070"/>
<g filter="url(#filter1_i_5579_103912)">
<path d="M55.8579 66.2887C55.8579 60.8634 60.256 56.4653 65.6813 56.4653H177.012C182.438 56.4653 186.836 60.8634 186.836 66.2887V88.3912H55.8579V66.2887Z" fill="#373737"/>
</g>
<g filter="url(#filter2_i_5579_103912)">
<path d="M55.8579 85.9354H186.836V90.8471H55.8579V85.9354Z" fill="#5A5A5A"/>
</g>
<rect x="15.7461" y="165.341" width="57.3028" height="28.5489" rx="6.5489" fill="#F5921D"/>
<path d="M35.8336 174.787C35.8288 175.646 35.8072 176.389 35.7689 177.017C35.7305 177.646 35.6393 178.365 35.4954 179.176H37.2294V180.658H32.1211V185.953H30.2792V180.658H25.286V179.176H33.632C33.7855 178.423 33.8838 177.735 33.927 177.111C33.9749 176.483 34.0013 175.804 34.0061 175.075H26.653V173.607H35.8336V174.787ZM49.9643 180.644H38.0208V179.19H43.0716V178.025H39.4742V173.363H48.5541V174.816H41.3017V176.543H48.6836V178.025H44.9135V179.19H49.9643V180.644ZM39.3447 181.55H48.5397V185.982H46.741V183.004H39.3447V181.55ZM62.7423 184.486H50.7557V182.975H53.8207V180.975H52.1371V176.571H59.5478V175.161H52.1227V173.693H61.3609V178.039H53.979V179.493H61.6631V180.975H59.8068V182.975H62.7423V184.486ZM58.0081 182.975V180.975H55.605V182.975H58.0081Z" fill="white"/>
<rect x="159.003" y="42.549" width="47.4795" height="28.5489" rx="6.5489" fill="#F5921D"/>
<path d="M182.118 61.6219H170.131V60.111H175.182V57.4345H171.397V51.0167H180.78V57.4345H177.009V60.111H182.118V61.6219ZM178.966 55.9955V52.4845H173.211V55.9955H178.966ZM193.831 57.4633H191.989V50.067H193.831V57.4633ZM183.068 53.8227C183.068 53.2088 183.223 52.6619 183.535 52.1823C183.847 51.7026 184.274 51.3285 184.816 51.0599C185.363 50.7913 185.974 50.657 186.651 50.657C187.322 50.657 187.929 50.7913 188.471 51.0599C189.018 51.3285 189.447 51.7026 189.759 52.1823C190.075 52.6619 190.234 53.2088 190.234 53.8227C190.234 54.4127 190.075 54.9451 189.759 55.42C189.447 55.8948 189.018 56.269 188.471 56.5424C187.929 56.811 187.322 56.9453 186.651 56.9453C185.979 56.9453 185.37 56.811 184.823 56.5424C184.276 56.269 183.847 55.8948 183.535 55.42C183.223 54.9451 183.068 54.4127 183.068 53.8227ZM184.866 53.8227C184.861 54.1393 184.933 54.4175 185.082 54.6573C185.236 54.8971 185.447 55.0818 185.715 55.2113C185.989 55.3408 186.3 55.4056 186.651 55.4056C186.991 55.4056 187.293 55.3408 187.557 55.2113C187.826 55.0818 188.037 54.8971 188.19 54.6573C188.344 54.4175 188.42 54.1393 188.42 53.8227C188.42 53.487 188.344 53.1968 188.19 52.9521C188.037 52.7075 187.826 52.5204 187.557 52.3909C187.293 52.2614 186.991 52.1967 186.651 52.1967C186.3 52.1967 185.989 52.2614 185.715 52.3909C185.447 52.5204 185.236 52.7075 185.082 52.9521C184.933 53.1968 184.861 53.487 184.866 53.8227ZM185.053 58.0533H193.831V63.0033H185.053V58.0533ZM192.032 61.5356V59.5066H186.866V61.5356H192.032Z" fill="white"/>
<rect x="169.645" y="120.317" width="54.847" height="28.5489" rx="6.5489" fill="#F5921D"/>
<path d="M188.994 135.375H187.166V134.095H184.216V132.627H187.166V131.375H184.353C183.533 133.447 181.679 134.877 178.791 135.663L178.072 134.21C179.535 133.826 180.657 133.291 181.439 132.605C182.226 131.915 182.686 131.106 182.821 130.181H178.777V128.713H184.821C184.821 129.154 184.79 129.562 184.727 129.936H187.166V127.835H188.994V135.375ZM180.158 138.181C180.158 137.649 180.343 137.184 180.713 136.786C181.082 136.387 181.605 136.08 182.281 135.865C182.957 135.644 183.742 135.534 184.634 135.534C185.516 135.534 186.293 135.644 186.965 135.865C187.636 136.08 188.159 136.387 188.533 136.786C188.907 137.184 189.094 137.649 189.094 138.181C189.094 138.719 188.907 139.189 188.533 139.592C188.159 139.999 187.634 140.311 186.958 140.527C186.286 140.748 185.511 140.858 184.634 140.858C183.742 140.858 182.957 140.748 182.281 140.527C181.605 140.311 181.082 140.002 180.713 139.599C180.343 139.196 180.158 138.723 180.158 138.181ZM181.986 138.181C181.986 138.584 182.216 138.889 182.677 139.095C183.137 139.301 183.789 139.404 184.634 139.404C185.459 139.404 186.099 139.301 186.555 139.095C187.015 138.884 187.248 138.579 187.253 138.181C187.248 137.783 187.015 137.481 186.555 137.275C186.099 137.064 185.459 136.963 184.634 136.973C183.794 136.963 183.142 137.064 182.677 137.275C182.216 137.481 181.986 137.783 181.986 138.181ZM202.678 139.39H190.692V137.908H195.757V134.987H197.599V137.908H202.678V139.39ZM191.181 134.109C192.059 133.965 192.829 133.704 193.491 133.325C194.152 132.946 194.67 132.493 195.045 131.965C195.419 131.437 195.632 130.881 195.685 130.296H191.685V128.814H201.628V130.296H197.642C197.69 130.881 197.901 131.435 198.275 131.958C198.654 132.476 199.182 132.92 199.858 133.289C200.534 133.653 201.326 133.903 202.232 134.037L201.513 135.49C200.376 135.289 199.39 134.922 198.556 134.39C197.726 133.857 197.098 133.2 196.671 132.418C196.253 133.215 195.632 133.888 194.807 134.44C193.987 134.987 193.018 135.361 191.9 135.562L191.181 134.109ZM208.247 130.785C208.242 131.586 208.355 132.363 208.585 133.116C208.816 133.864 209.163 134.536 209.629 135.131C210.094 135.726 210.665 136.186 211.341 136.512L210.233 137.98C209.552 137.639 208.969 137.164 208.485 136.555C208 135.941 207.619 135.227 207.341 134.411C207.043 135.289 206.638 136.056 206.125 136.714C205.611 137.366 204.995 137.87 204.276 138.225L203.139 136.742C203.853 136.416 204.455 135.944 204.945 135.325C205.434 134.701 205.798 133.999 206.038 133.217C206.283 132.43 206.405 131.62 206.405 130.785V128.828H208.247V130.785ZM211.916 127.821H213.758V132.872H215.687V134.426H213.758V140.915H211.916V127.821Z" fill="white"/>
<rect x="37.0298" y="77.7493" width="56.4842" height="28.5489" rx="6.5489" fill="#F5921D"/>
<path d="M56.5498 88.0733H58.3198V89.5411H56.5498V92.3183H54.708V85.2242H56.5498V88.0733ZM46.1605 86.2314H49.1392V85.1666H50.9666V86.2314H53.9309V87.6272H46.1605V86.2314ZM46.7936 90.0879C46.7936 89.6562 46.9279 89.2796 47.1965 88.9583C47.47 88.6369 47.8513 88.3875 48.3405 88.21C48.8298 88.0325 49.3982 87.9438 50.0457 87.9438C50.698 87.9438 51.2664 88.0325 51.7509 88.21C52.2353 88.3875 52.6095 88.6369 52.8733 88.9583C53.1371 89.2796 53.269 89.6562 53.269 90.0879C53.269 90.5291 53.1371 90.9105 52.8733 91.2318C52.6095 91.5532 52.2353 91.8002 51.7509 91.9729C51.2664 92.1456 50.698 92.2319 50.0457 92.2319C49.3982 92.2319 48.8274 92.1456 48.3333 91.9729C47.8441 91.8002 47.4652 91.5532 47.1965 91.2318C46.9279 90.9105 46.7936 90.5291 46.7936 90.0879ZM47.8585 92.8507H56.5498V96.1603H49.686V96.9086H56.924V98.2612H47.8873V94.9084H54.7223V94.1745H47.8585V92.8507ZM48.5923 90.0879C48.5876 90.3613 48.7123 90.5675 48.9665 90.7066C49.2207 90.8457 49.5804 90.9177 50.0457 90.9225C50.5158 90.9177 50.8803 90.8457 51.1393 90.7066C51.3983 90.5675 51.5278 90.3613 51.5278 90.0879C51.5278 89.8193 51.3983 89.6106 51.1393 89.4619C50.8851 89.3132 50.5302 89.2389 50.0745 89.2389C49.6044 89.2389 49.2375 89.3108 48.9737 89.4547C48.7147 89.5986 48.5876 89.8097 48.5923 90.0879ZM70.8676 94.2465H65.7448V98.3475H63.9317V94.2465H58.881V92.8075H70.8676V94.2465ZM60.2911 85.7566H62.1042V87.2675H67.6011V85.7566H69.443V91.5412H60.2911V85.7566ZM67.6011 90.0735V88.7065H62.1042V90.0735H67.6011ZM82.1922 86.8934V87.3035C82.1922 87.8551 82.1706 88.3851 82.1275 88.8935C82.0891 89.402 82.0076 89.9536 81.8828 90.5483H83.6168V92.0305H71.6302V90.5483H80.0338C80.1585 89.9632 80.2424 89.4235 80.2856 88.9295C80.3288 88.4307 80.3551 87.891 80.3647 87.3107H73.0979V85.8429H82.1922V86.8934ZM73.0548 93.4119H82.149V98.2036H73.0548V93.4119ZM80.3216 96.7359V94.8508H74.8535V96.7359H80.3216Z" fill="white"/>
<circle cx="54.0154" cy="38.2508" r="2.25078" fill="#FFE6C1"/>
<path d="M36.2699 44.3873C36.4778 42.7874 38.2925 42.7874 38.5004 44.3873L39.1434 49.3359L43.0474 50.151C44.3095 50.4146 44.3095 52.7149 43.0474 52.9784L39.1434 53.7935L38.5004 58.7422C38.2925 60.342 36.4778 60.342 36.2699 58.7422L35.6269 53.7935L31.7229 52.9784C30.4608 52.7149 30.4608 50.4146 31.7229 50.151L35.6269 49.3359L36.2699 44.3873Z" fill="white"/>
<defs>
<filter id="filter0_i_5579_103912" x="55.8579" y="76.9306" width="130.978" height="126.885" filterUnits="userSpaceOnUse" color-interpolation-filters="sRGB">
<feFlood flood-opacity="0" result="BackgroundImageFix"/>
<feBlend mode="normal" in="SourceGraphic" in2="BackgroundImageFix" result="shape"/>
<feColorMatrix in="SourceAlpha" type="matrix" values="0 0 0 0 0 0 0 0 0 0 0 0 0 0 0 0 0 0 127 0" result="hardAlpha"/>
<feOffset dy="-4.09306"/>
<feGaussianBlur stdDeviation="8.18612"/>
<feComposite in2="hardAlpha" operator="arithmetic" k2="-1" k3="1"/>
<feColorMatrix type="matrix" values="0 0 0 0 0 0 0 0 0 0 0 0 0 0 0 0 0 0 0.12 0"/>
<feBlend mode="normal" in2="shape" result="effect1_innerShadow_5579_103912"/>
</filter>
<filter id="filter1_i_5579_103912" x="55.8579" y="53.1909" width="130.978" height="35.2004" filterUnits="userSpaceOnUse" color-interpolation-filters="sRGB">
<feFlood flood-opacity="0" result="BackgroundImageFix"/>
<feBlend mode="normal" in="SourceGraphic" in2="BackgroundImageFix" result="shape"/>
<feColorMatrix in="SourceAlpha" type="matrix" values="0 0 0 0 0 0 0 0 0 0 0 0 0 0 0 0 0 0 127 0" result="hardAlpha"/>
<feOffset dy="-3.27445"/>
<feGaussianBlur stdDeviation="3.27445"/>
<feComposite in2="hardAlpha" operator="arithmetic" k2="-1" k3="1"/>
<feColorMatrix type="matrix" values="0 0 0 0 0 0 0 0 0 0 0 0 0 0 0 0 0 0 0.16 0"/>
<feBlend mode="normal" in2="shape" result="effect1_innerShadow_5579_103912"/>
</filter>
<filter id="filter2_i_5579_103912" x="55.8579" y="82.661" width="130.978" height="8.18607" filterUnits="userSpaceOnUse" color-interpolation-filters="sRGB">
<feFlood flood-opacity="0" result="BackgroundImageFix"/>
<feBlend mode="normal" in="SourceGraphic" in2="BackgroundImageFix" result="shape"/>
<feColorMatrix in="SourceAlpha" type="matrix" values="0 0 0 0 0 0 0 0 0 0 0 0 0 0 0 0 0 0 127 0" result="hardAlpha"/>
<feOffset dy="-3.27445"/>
<feGaussianBlur stdDeviation="3.27445"/>
<feComposite in2="hardAlpha" operator="arithmetic" k2="-1" k3="1"/>
<feColorMatrix type="matrix" values="0 0 0 0 0 0 0 0 0 0 0 0 0 0 0 0 0 0 0.16 0"/>
<feBlend mode="normal" in2="shape" result="effect1_innerShadow_5579_103912"/>
</filter>
</defs>
</svg>
