<svg width="368" height="184" viewBox="0 0 368 184" fill="none" xmlns="http://www.w3.org/2000/svg">
<g filter="url(#filter0_d_5551_98313)">
<rect x="20.2539" y="20" width="327" height="144" rx="4" fill="#212121"/>
</g>
<path d="M95.5801 89.543V95.6836H94.6543V95.1094H92.5449V94.5H94.6543V89.543H95.5801ZM86.9551 93.4688C88.9707 93.4805 91.5488 93.457 93.7988 93.2109L93.8574 93.8086C92.8379 93.9551 91.7773 94.043 90.7402 94.0898V95.7188H89.8379V94.125C88.8535 94.1602 87.9043 94.1602 87.0605 94.1602L86.9551 93.4688ZM87.7637 91.3125C87.7637 90.3457 88.7832 89.7422 90.3535 89.7422C91.9062 89.7422 92.9316 90.3457 92.9434 91.3125C92.9316 92.2852 91.9062 92.8652 90.3535 92.8711C88.7832 92.8652 87.7637 92.2852 87.7637 91.3125ZM88.5488 96.7266V96.0586H95.5801V98.2148H89.498V99.1523H95.9199V99.832H88.5957V97.5703H94.666V96.7266H88.5488ZM88.6309 91.3125C88.625 91.8633 89.3047 92.2383 90.3535 92.2383C91.3906 92.2383 92.0703 91.8633 92.0762 91.3125C92.0703 90.7559 91.3906 90.3809 90.3535 90.3867C89.3047 90.3809 88.625 90.7559 88.6309 91.3125Z" fill="#F6F6F6"/>
<path d="M139.576 89.5312V93.9727H141.24V94.7461H139.576V99.9492H138.65V89.5312H139.576ZM131.361 97.1719C132.211 97.1719 133.201 97.166 134.232 97.1367V95.9883C133.02 95.8477 132.229 95.1328 132.24 94.1016C132.229 92.9238 133.225 92.1621 134.701 92.168C136.154 92.1621 137.168 92.9238 137.174 94.1016C137.168 95.1387 136.365 95.8477 135.158 95.9883V97.1016C136.125 97.0547 137.109 96.9727 138.018 96.8438L138.076 97.5469C135.803 97.9336 133.342 97.957 131.514 97.957L131.361 97.1719ZM131.549 91.5586V90.8086H134.232V89.5547H135.158V90.8086H137.83V91.5586H131.549ZM133.096 94.1016C133.102 94.8223 133.734 95.2969 134.701 95.2852C135.65 95.2969 136.289 94.8223 136.295 94.1016C136.289 93.375 135.65 92.8828 134.701 92.8828C133.734 92.8828 133.102 93.375 133.096 94.1016Z" fill="#F6F6F6"/>
<path d="M181.217 90.5039C181.223 91.9746 183.133 93.2402 185.014 93.5039L184.639 94.2539C183.021 93.9844 181.416 93.0879 180.748 91.8105C180.08 93.0996 178.48 93.9844 176.857 94.2539L176.482 93.5039C178.363 93.2402 180.268 91.998 180.268 90.5039V89.9062H181.217V90.5039ZM175.99 96.1758V95.4023H185.482V96.1758H181.17V99.9492H180.268V96.1758H175.99Z" fill="#F6F6F6"/>
<path d="M228.775 89.9766V93.4922H225.693V94.8281H229.982V95.5781H220.49V94.8281H224.779V93.4922H221.721V89.9766H228.775ZM221.545 97.4062V96.668H228.811V99.9492H227.885V97.4062H221.545ZM222.623 92.7539H227.861V90.7148H222.623V92.7539Z" fill="#F6F6F6"/>
<path d="M273.275 90.0938V90.8672C273.275 91.6758 273.275 92.625 273 93.9258H274.529V94.6875H264.99V93.9258H272.074C272.367 92.6133 272.367 91.6758 272.361 90.8672V90.8555H266.197V90.0938H273.275ZM266.162 99.8086V96.1289H273.322V99.8086H266.162ZM267.076 99.0586H272.408V96.8555H267.076V99.0586Z" fill="#F6F6F6"/>
<path d="M317.928 94.957V95.707H314.693V97.8867H319.029V98.6484H309.49V97.8867H313.779V95.707H310.721V90.3867H317.811V91.1484H311.658V92.6367H317.588V93.3867H311.658V94.957H317.928Z" fill="#F6F6F6"/>
<path d="M45.4434 89.918C47.002 89.9238 48.1328 90.873 48.1387 92.2266C48.1328 93.5859 47.002 94.5234 45.4434 94.5234C43.8672 94.5234 42.7305 93.5859 42.7363 92.2266C42.7305 90.873 43.8672 89.9238 45.4434 89.918ZM43.6387 92.2266C43.627 93.1406 44.3945 93.7734 45.4434 93.7734C46.4746 93.7734 47.248 93.1406 47.248 92.2266C47.248 91.3242 46.4746 90.6855 45.4434 90.6914C44.3945 90.6855 43.627 91.3242 43.6387 92.2266ZM44.3184 96.1289V95.3906H51.0918V97.8984H45.2441V99.0703H51.4668V99.8086H44.3418V97.207H50.1777V96.1289H44.3184ZM50.1777 94.8867V89.5312H51.0918V94.8867H50.1777Z" fill="#F6F6F6"/>
<path d="M44.5859 54.8828C41.9773 54.8828 40.107 53.4473 40.0578 51.3719H42.5516C42.5926 52.2578 43.4539 52.8402 44.6023 52.8484C45.7836 52.8402 46.6285 52.184 46.6203 51.2242C46.6285 50.2562 45.7672 49.5754 44.3727 49.5672H43.2734V47.7461H44.3727C45.5457 47.7461 46.366 47.1062 46.3578 46.1711C46.366 45.2605 45.6688 44.6371 44.6188 44.6453C43.5688 44.6371 42.7074 45.2277 42.6664 46.1383H40.3039C40.3449 44.0957 42.1824 42.6766 44.6188 42.6766C47.0961 42.6766 48.7449 44.1449 48.7367 46.0234C48.7449 47.3523 47.818 48.2957 46.4891 48.5336V48.632C48.2363 48.8453 49.1961 49.9035 49.1797 51.3883C49.1961 53.4227 47.2684 54.8828 44.5859 54.8828ZM63.0758 41.3148V49.9609H60.9758V49.4852H58.2688V48.2219H60.9758V41.3148H63.0758ZM50.4266 46.5648C53.3141 46.573 56.8906 46.5566 60.0898 46.2531L60.1883 47.5492C58.8676 47.7215 57.5141 47.8363 56.1852 47.9102V49.9937H54.118V47.984C52.8957 48.0168 51.7227 48.0168 50.6398 48.0086L50.4266 46.5648ZM51.4438 43.7594C51.4438 42.4141 52.9531 41.5199 55.2336 41.5117C57.4566 41.5199 58.9824 42.4141 58.9906 43.7594C58.9824 45.1457 57.4566 45.9988 55.2336 45.9906C52.9531 45.9988 51.4438 45.1457 51.4438 43.7594ZM52.5594 51.8148V50.4039H63.0758V53.8984H54.6758V54.6695H63.4203V56.1297H52.625V52.5531H60.9922V51.8148H52.5594ZM53.4289 43.7594C53.4125 44.309 54.1016 44.6207 55.2336 44.6289C56.3328 44.6207 57.0301 44.309 57.0383 43.7594C57.0301 43.2098 56.3328 42.8816 55.2336 42.8898C54.1016 42.8816 53.4125 43.2098 53.4289 43.7594Z" fill="white"/>
<path fill-rule="evenodd" clip-rule="evenodd" d="M328.254 69.6798L39.2539 69.6798L39.2539 68.8398L328.254 68.8398L328.254 69.6798Z" fill="#484848"/>
<circle cx="49.2539" cy="132" r="12" fill="#FFCD9E"/>
<path d="M50.4199 136H49.3535V128.617H49.3066L47.2441 129.988V128.922L49.3535 127.516H50.4199V136Z" fill="#212121"/>
<circle cx="93.2539" cy="132" r="12" fill="#FF7447"/>
<path d="M90.5176 135.227L93.4121 132.18C93.791 131.773 94.0801 131.447 94.2793 131.201C94.4824 130.951 94.6367 130.711 94.7422 130.48C94.8477 130.25 94.9004 130.008 94.9004 129.754C94.9004 129.469 94.8262 129.219 94.6777 129.004C94.5293 128.785 94.3262 128.615 94.0684 128.494C93.8145 128.373 93.5293 128.312 93.2129 128.312C92.8809 128.312 92.5898 128.381 92.3398 128.518C92.0898 128.65 91.8965 128.836 91.7598 129.074C91.627 129.312 91.5605 129.59 91.5605 129.906H90.5645C90.5605 129.414 90.6738 128.979 90.9043 128.6C91.1387 128.221 91.4609 127.926 91.8711 127.715C92.2812 127.504 92.7402 127.398 93.248 127.398C93.752 127.398 94.2031 127.502 94.6016 127.709C95.0039 127.916 95.3184 128.199 95.5449 128.559C95.7715 128.918 95.8848 129.316 95.8848 129.754C95.8809 130.078 95.8203 130.389 95.7031 130.686C95.5898 130.979 95.3945 131.305 95.1172 131.664C94.8398 132.023 94.4473 132.465 93.9395 132.988L91.9941 134.992V135.062H96.0371V136H90.5293L90.5176 135.227Z" fill="#212121"/>
<circle cx="137.254" cy="132" r="12" fill="#FFCD9E"/>
<path d="M137.277 136.117C136.719 136.117 136.219 136.023 135.777 135.836C135.336 135.648 134.986 135.385 134.729 135.045C134.475 134.701 134.34 134.309 134.324 133.867H135.391C135.41 134.133 135.504 134.365 135.672 134.564C135.84 134.76 136.062 134.912 136.34 135.021C136.617 135.127 136.926 135.18 137.266 135.18C137.637 135.18 137.969 135.117 138.262 134.992C138.555 134.867 138.783 134.691 138.947 134.465C139.115 134.238 139.199 133.98 139.199 133.691C139.195 133.383 139.113 133.109 138.953 132.871C138.793 132.633 138.557 132.447 138.244 132.314C137.936 132.178 137.566 132.109 137.137 132.109H136.445V131.184H137.137C137.477 131.184 137.779 131.123 138.045 131.002C138.311 130.881 138.516 130.711 138.66 130.492C138.809 130.27 138.883 130.016 138.883 129.73C138.883 129.449 138.818 129.203 138.689 128.992C138.561 128.777 138.377 128.611 138.139 128.494C137.9 128.373 137.621 128.312 137.301 128.312C136.996 128.316 136.709 128.373 136.439 128.482C136.174 128.588 135.957 128.742 135.789 128.945C135.625 129.145 135.535 129.379 135.52 129.648H134.5C134.516 129.211 134.65 128.822 134.904 128.482C135.162 128.139 135.502 127.873 135.924 127.686C136.35 127.494 136.812 127.398 137.312 127.398C137.836 127.398 138.293 127.502 138.684 127.709C139.078 127.916 139.381 128.193 139.592 128.541C139.803 128.889 139.906 129.266 139.902 129.672C139.906 130.148 139.779 130.557 139.521 130.896C139.264 131.232 138.91 131.465 138.461 131.594V131.652C138.824 131.707 139.139 131.828 139.404 132.016C139.674 132.199 139.879 132.436 140.02 132.725C140.16 133.01 140.23 133.332 140.23 133.691C140.23 134.148 140.102 134.562 139.844 134.934C139.59 135.301 139.238 135.59 138.789 135.801C138.34 136.012 137.836 136.117 137.277 136.117Z" fill="#212121"/>
<circle cx="181.254" cy="132" r="12" fill="#FF7447"/>
<path d="M178.096 133.398L181.916 127.516H183.217V133.34H184.4V134.266H183.217V136H182.209V134.266H178.096V133.398ZM182.209 133.34V128.852H182.104L179.232 133.27V133.34H182.209Z" fill="#212121"/>
<circle cx="225.254" cy="132" r="12" fill="#FFCD9E"/>
<path d="M225.236 136.117C224.732 136.117 224.273 136.021 223.859 135.83C223.449 135.635 223.121 135.367 222.875 135.027C222.633 134.684 222.502 134.297 222.482 133.867H223.502C223.525 134.117 223.617 134.342 223.777 134.541C223.938 134.74 224.145 134.898 224.398 135.016C224.656 135.133 224.936 135.191 225.236 135.191C225.6 135.191 225.924 135.109 226.209 134.945C226.498 134.781 226.725 134.557 226.889 134.271C227.053 133.986 227.135 133.668 227.135 133.316C227.135 132.953 227.049 132.627 226.877 132.338C226.709 132.045 226.475 131.814 226.174 131.646C225.877 131.479 225.541 131.395 225.166 131.395C224.404 131.383 223.877 131.637 223.584 132.156H222.564L223.162 127.516H227.756V128.453H224.041L223.725 130.938H223.807C224.002 130.789 224.234 130.67 224.504 130.58C224.777 130.49 225.061 130.445 225.354 130.445C225.885 130.445 226.363 130.568 226.789 130.814C227.219 131.057 227.555 131.395 227.797 131.828C228.043 132.262 228.166 132.75 228.166 133.293C228.166 133.832 228.039 134.316 227.785 134.746C227.531 135.176 227.182 135.512 226.736 135.754C226.295 135.996 225.795 136.117 225.236 136.117Z" fill="#212121"/>
<circle cx="269.254" cy="132" r="12" fill="#FF7447"/>
<path d="M269.359 136.117C268.809 136.117 268.299 135.994 267.83 135.748C267.365 135.498 266.982 135.074 266.682 134.477C266.381 133.875 266.23 133.078 266.23 132.086C266.23 131.094 266.359 130.248 266.617 129.549C266.879 128.846 267.25 128.312 267.73 127.949C268.215 127.582 268.789 127.398 269.453 127.398C269.941 127.398 270.381 127.494 270.771 127.686C271.162 127.873 271.48 128.137 271.727 128.477C271.977 128.816 272.137 129.207 272.207 129.648H271.164C271.062 129.254 270.865 128.938 270.572 128.699C270.279 128.457 269.906 128.336 269.453 128.336C268.988 128.336 268.588 128.465 268.252 128.723C267.92 128.977 267.666 129.346 267.49 129.83C267.314 130.314 267.227 130.895 267.227 131.57H267.332C267.578 131.215 267.889 130.939 268.264 130.744C268.643 130.545 269.059 130.445 269.512 130.445C270.012 130.445 270.473 130.566 270.895 130.809C271.316 131.051 271.652 131.387 271.902 131.816C272.152 132.242 272.277 132.723 272.277 133.258C272.277 133.789 272.156 134.271 271.914 134.705C271.672 135.139 271.328 135.482 270.883 135.736C270.441 135.99 269.934 136.117 269.359 136.117ZM267.367 133.281C267.367 133.613 267.451 133.926 267.619 134.219C267.791 134.512 268.025 134.748 268.322 134.928C268.623 135.104 268.957 135.191 269.324 135.191C269.684 135.191 270.01 135.105 270.303 134.934C270.596 134.758 270.828 134.523 271 134.23C271.172 133.938 271.258 133.617 271.258 133.27C271.258 132.926 271.174 132.609 271.006 132.32C270.842 132.031 270.613 131.801 270.32 131.629C270.031 131.457 269.707 131.371 269.348 131.371C268.984 131.371 268.652 131.461 268.352 131.641C268.051 131.816 267.812 132.051 267.637 132.344C267.461 132.637 267.371 132.949 267.367 133.281Z" fill="#212121"/>
<circle cx="313.254" cy="132" r="12" fill="#FF7447"/>
<path d="M315.4 128.512V128.453H310.912V127.516H316.49V128.5L312.611 136H311.51L315.4 128.512Z" fill="#212121"/>
<defs>
<filter id="filter0_d_5551_98313" x="0.253906" y="0" width="367" height="184" filterUnits="userSpaceOnUse" color-interpolation-filters="sRGB">
<feFlood flood-opacity="0" result="BackgroundImageFix"/>
<feColorMatrix in="SourceAlpha" type="matrix" values="0 0 0 0 0 0 0 0 0 0 0 0 0 0 0 0 0 0 127 0" result="hardAlpha"/>
<feOffset/>
<feGaussianBlur stdDeviation="10"/>
<feComposite in2="hardAlpha" operator="out"/>
<feColorMatrix type="matrix" values="0 0 0 0 0 0 0 0 0 0 0 0 0 0 0 0 0 0 0.3 0"/>
<feBlend mode="normal" in2="BackgroundImageFix" result="effect1_dropShadow_5551_98313"/>
<feBlend mode="normal" in="SourceGraphic" in2="effect1_dropShadow_5551_98313" result="shape"/>
</filter>
</defs>
</svg>
