<svg width="327" height="144" viewBox="0 0 327 144" fill="none" xmlns="http://www.w3.org/2000/svg">
<rect width="327" height="144" rx="4" fill="#373737"/>
<path d="M75.3262 69.543V75.6836H74.4004V75.1094H72.291V74.5H74.4004V69.543H75.3262ZM66.7012 73.4688C68.7168 73.4805 71.2949 73.457 73.5449 73.2109L73.6035 73.8086C72.584 73.9551 71.5234 74.043 70.4863 74.0898V75.7188H69.584V74.125C68.5996 74.1602 67.6504 74.1602 66.8066 74.1602L66.7012 73.4688ZM67.5098 71.3125C67.5098 70.3457 68.5293 69.7422 70.0996 69.7422C71.6523 69.7422 72.6777 70.3457 72.6895 71.3125C72.6777 72.2852 71.6523 72.8652 70.0996 72.8711C68.5293 72.8652 67.5098 72.2852 67.5098 71.3125ZM68.2949 76.7266V76.0586H75.3262V78.2148H69.2441V79.1523H75.666V79.832H68.3418V77.5703H74.4121V76.7266H68.2949ZM68.377 71.3125C68.3711 71.8633 69.0508 72.2383 70.0996 72.2383C71.1367 72.2383 71.8164 71.8633 71.8223 71.3125C71.8164 70.7559 71.1367 70.3809 70.0996 70.3867C69.0508 70.3809 68.3711 70.7559 68.377 71.3125Z" fill="#F6F6F6"/>
<path d="M119.322 69.5312V73.9727H120.986V74.7461H119.322V79.9492H118.396V69.5312H119.322ZM111.107 77.1719C111.957 77.1719 112.947 77.166 113.979 77.1367V75.9883C112.766 75.8477 111.975 75.1328 111.986 74.1016C111.975 72.9238 112.971 72.1621 114.447 72.168C115.9 72.1621 116.914 72.9238 116.92 74.1016C116.914 75.1387 116.111 75.8477 114.904 75.9883V77.1016C115.871 77.0547 116.855 76.9727 117.764 76.8438L117.822 77.5469C115.549 77.9336 113.088 77.957 111.26 77.957L111.107 77.1719ZM111.295 71.5586V70.8086H113.979V69.5547H114.904V70.8086H117.576V71.5586H111.295ZM112.842 74.1016C112.848 74.8223 113.48 75.2969 114.447 75.2852C115.396 75.2969 116.035 74.8223 116.041 74.1016C116.035 73.375 115.396 72.8828 114.447 72.8828C113.48 72.8828 112.848 73.375 112.842 74.1016Z" fill="#F6F6F6"/>
<path d="M160.963 70.5039C160.969 71.9746 162.879 73.2402 164.76 73.5039L164.385 74.2539C162.768 73.9844 161.162 73.0879 160.494 71.8105C159.826 73.0996 158.227 73.9844 156.604 74.2539L156.229 73.5039C158.109 73.2402 160.014 71.998 160.014 70.5039V69.9062H160.963V70.5039ZM155.736 76.1758V75.4023H165.229V76.1758H160.916V79.9492H160.014V76.1758H155.736Z" fill="#F6F6F6"/>
<path d="M208.521 69.9766V73.4922H205.439V74.8281H209.729V75.5781H200.236V74.8281H204.525V73.4922H201.467V69.9766H208.521ZM201.291 77.4062V76.668H208.557V79.9492H207.631V77.4062H201.291ZM202.369 72.7539H207.607V70.7148H202.369V72.7539Z" fill="#F6F6F6"/>
<path d="M253.021 70.0938V70.8672C253.021 71.6758 253.021 72.625 252.746 73.9258H254.275V74.6875H244.736V73.9258H251.82C252.113 72.6133 252.113 71.6758 252.107 70.8672V70.8555H245.943V70.0938H253.021ZM245.908 79.8086V76.1289H253.068V79.8086H245.908ZM246.822 79.0586H252.154V76.8555H246.822V79.0586Z" fill="#F6F6F6"/>
<path d="M297.674 74.957V75.707H294.439V77.8867H298.775V78.6484H289.236V77.8867H293.525V75.707H290.467V70.3867H297.557V71.1484H291.404V72.6367H297.334V73.3867H291.404V74.957H297.674Z" fill="#F6F6F6"/>
<path d="M25.1895 69.918C26.748 69.9238 27.8789 70.873 27.8848 72.2266C27.8789 73.5859 26.748 74.5234 25.1895 74.5234C23.6133 74.5234 22.4766 73.5859 22.4824 72.2266C22.4766 70.873 23.6133 69.9238 25.1895 69.918ZM23.3848 72.2266C23.373 73.1406 24.1406 73.7734 25.1895 73.7734C26.2207 73.7734 26.9941 73.1406 26.9941 72.2266C26.9941 71.3242 26.2207 70.6855 25.1895 70.6914C24.1406 70.6855 23.373 71.3242 23.3848 72.2266ZM24.0645 76.1289V75.3906H30.8379V77.8984H24.9902V79.0703H31.2129V79.8086H24.0879V77.207H29.9238V76.1289H24.0645ZM29.9238 74.8867V69.5312H30.8379V74.8867H29.9238Z" fill="#F6F6F6"/>
<path d="M24.332 34.8828C21.7234 34.8828 19.8531 33.4473 19.8039 31.3719H22.2977C22.3387 32.2578 23.2 32.8402 24.3484 32.8484C25.5297 32.8402 26.3746 32.184 26.3664 31.2242C26.3746 30.2562 25.5133 29.5754 24.1188 29.5672H23.0195V27.7461H24.1188C25.2918 27.7461 26.1121 27.1062 26.1039 26.1711C26.1121 25.2605 25.4148 24.6371 24.3648 24.6453C23.3148 24.6371 22.4535 25.2277 22.4125 26.1383H20.05C20.091 24.0957 21.9285 22.6766 24.3648 22.6766C26.8422 22.6766 28.491 24.1449 28.4828 26.0234C28.491 27.3523 27.5641 28.2957 26.2352 28.5336V28.632C27.9824 28.8453 28.9422 29.9035 28.9258 31.3883C28.9422 33.4227 27.0145 34.8828 24.332 34.8828ZM42.8219 21.3148V29.9609H40.7219V29.4852H38.0148V28.2219H40.7219V21.3148H42.8219ZM30.1727 26.5648C33.0602 26.573 36.6367 26.5566 39.8359 26.2531L39.9344 27.5492C38.6137 27.7215 37.2602 27.8363 35.9313 27.9102V29.9937H33.8641V27.984C32.6418 28.0168 31.4688 28.0168 30.3859 28.0086L30.1727 26.5648ZM31.1898 23.7594C31.1898 22.4141 32.6992 21.5199 34.9797 21.5117C37.2027 21.5199 38.7285 22.4141 38.7367 23.7594C38.7285 25.1457 37.2027 25.9988 34.9797 25.9906C32.6992 25.9988 31.1898 25.1457 31.1898 23.7594ZM32.3055 31.8148V30.4039H42.8219V33.8984H34.4219V34.6695H43.1664V36.1297H32.3711V32.5531H40.7383V31.8148H32.3055ZM33.175 23.7594C33.1586 24.309 33.8477 24.6207 34.9797 24.6289C36.0789 24.6207 36.7762 24.309 36.7844 23.7594C36.7762 23.2098 36.0789 22.8816 34.9797 22.8898C33.8477 22.8816 33.1586 23.2098 33.175 23.7594Z" fill="white"/>
<path fill-rule="evenodd" clip-rule="evenodd" d="M308 49.6798L19 49.6798L19 48.8398L308 48.8398L308 49.6798Z" fill="#484848"/>
<circle cx="29" cy="112" r="12" fill="#FFCD9E"/>
<path d="M30.166 116H29.0996V108.617H29.0527L26.9902 109.988V108.922L29.0996 107.516H30.166V116Z" fill="#373737"/>
<circle cx="73" cy="112" r="12" fill="#FF7447"/>
<path d="M70.2637 115.227L73.1582 112.18C73.5371 111.773 73.8262 111.447 74.0254 111.201C74.2285 110.951 74.3828 110.711 74.4883 110.48C74.5938 110.25 74.6465 110.008 74.6465 109.754C74.6465 109.469 74.5723 109.219 74.4238 109.004C74.2754 108.785 74.0723 108.615 73.8145 108.494C73.5605 108.373 73.2754 108.312 72.959 108.312C72.627 108.312 72.3359 108.381 72.0859 108.518C71.8359 108.65 71.6426 108.836 71.5059 109.074C71.373 109.312 71.3066 109.59 71.3066 109.906H70.3105C70.3066 109.414 70.4199 108.979 70.6504 108.6C70.8848 108.221 71.207 107.926 71.6172 107.715C72.0273 107.504 72.4863 107.398 72.9941 107.398C73.498 107.398 73.9492 107.502 74.3477 107.709C74.75 107.916 75.0645 108.199 75.291 108.559C75.5176 108.918 75.6309 109.316 75.6309 109.754C75.627 110.078 75.5664 110.389 75.4492 110.686C75.3359 110.979 75.1406 111.305 74.8633 111.664C74.5859 112.023 74.1934 112.465 73.6855 112.988L71.7402 114.992V115.062H75.7832V116H70.2754L70.2637 115.227Z" fill="#373737"/>
<circle cx="117" cy="112" r="12" fill="#FFCD9E"/>
<path d="M117.023 116.117C116.465 116.117 115.965 116.023 115.523 115.836C115.082 115.648 114.732 115.385 114.475 115.045C114.221 114.701 114.086 114.309 114.07 113.867H115.137C115.156 114.133 115.25 114.365 115.418 114.564C115.586 114.76 115.809 114.912 116.086 115.021C116.363 115.127 116.672 115.18 117.012 115.18C117.383 115.18 117.715 115.117 118.008 114.992C118.301 114.867 118.529 114.691 118.693 114.465C118.861 114.238 118.945 113.98 118.945 113.691C118.941 113.383 118.859 113.109 118.699 112.871C118.539 112.633 118.303 112.447 117.99 112.314C117.682 112.178 117.312 112.109 116.883 112.109H116.191V111.184H116.883C117.223 111.184 117.525 111.123 117.791 111.002C118.057 110.881 118.262 110.711 118.406 110.492C118.555 110.27 118.629 110.016 118.629 109.73C118.629 109.449 118.564 109.203 118.436 108.992C118.307 108.777 118.123 108.611 117.885 108.494C117.646 108.373 117.367 108.312 117.047 108.312C116.742 108.316 116.455 108.373 116.186 108.482C115.92 108.588 115.703 108.742 115.535 108.945C115.371 109.145 115.281 109.379 115.266 109.648H114.246C114.262 109.211 114.396 108.822 114.65 108.482C114.908 108.139 115.248 107.873 115.67 107.686C116.096 107.494 116.559 107.398 117.059 107.398C117.582 107.398 118.039 107.502 118.43 107.709C118.824 107.916 119.127 108.193 119.338 108.541C119.549 108.889 119.652 109.266 119.648 109.672C119.652 110.148 119.525 110.557 119.268 110.896C119.01 111.232 118.656 111.465 118.207 111.594V111.652C118.57 111.707 118.885 111.828 119.15 112.016C119.42 112.199 119.625 112.436 119.766 112.725C119.906 113.01 119.977 113.332 119.977 113.691C119.977 114.148 119.848 114.562 119.59 114.934C119.336 115.301 118.984 115.59 118.535 115.801C118.086 116.012 117.582 116.117 117.023 116.117Z" fill="#373737"/>
<circle cx="161" cy="112" r="12" fill="#FF7447"/>
<path d="M157.842 113.398L161.662 107.516H162.963V113.34H164.146V114.266H162.963V116H161.955V114.266H157.842V113.398ZM161.955 113.34V108.852H161.85L158.979 113.27V113.34H161.955Z" fill="#373737"/>
<circle cx="205" cy="112" r="12" fill="#FFCD9E"/>
<path d="M204.982 116.117C204.479 116.117 204.02 116.021 203.605 115.83C203.195 115.635 202.867 115.367 202.621 115.027C202.379 114.684 202.248 114.297 202.229 113.867H203.248C203.271 114.117 203.363 114.342 203.523 114.541C203.684 114.74 203.891 114.898 204.145 115.016C204.402 115.133 204.682 115.191 204.982 115.191C205.346 115.191 205.67 115.109 205.955 114.945C206.244 114.781 206.471 114.557 206.635 114.271C206.799 113.986 206.881 113.668 206.881 113.316C206.881 112.953 206.795 112.627 206.623 112.338C206.455 112.045 206.221 111.814 205.92 111.646C205.623 111.479 205.287 111.395 204.912 111.395C204.15 111.383 203.623 111.637 203.33 112.156H202.311L202.908 107.516H207.502V108.453H203.787L203.471 110.938H203.553C203.748 110.789 203.98 110.67 204.25 110.58C204.523 110.49 204.807 110.445 205.1 110.445C205.631 110.445 206.109 110.568 206.535 110.814C206.965 111.057 207.301 111.395 207.543 111.828C207.789 112.262 207.912 112.75 207.912 113.293C207.912 113.832 207.785 114.316 207.531 114.746C207.277 115.176 206.928 115.512 206.482 115.754C206.041 115.996 205.541 116.117 204.982 116.117Z" fill="#373737"/>
<circle cx="249" cy="112" r="12" fill="#FF7447"/>
<path d="M249.105 116.117C248.555 116.117 248.045 115.994 247.576 115.748C247.111 115.498 246.729 115.074 246.428 114.477C246.127 113.875 245.977 113.078 245.977 112.086C245.977 111.094 246.105 110.248 246.363 109.549C246.625 108.846 246.996 108.312 247.477 107.949C247.961 107.582 248.535 107.398 249.199 107.398C249.688 107.398 250.127 107.494 250.518 107.686C250.908 107.873 251.227 108.137 251.473 108.477C251.723 108.816 251.883 109.207 251.953 109.648H250.91C250.809 109.254 250.611 108.938 250.318 108.699C250.025 108.457 249.652 108.336 249.199 108.336C248.734 108.336 248.334 108.465 247.998 108.723C247.666 108.977 247.412 109.346 247.236 109.83C247.061 110.314 246.973 110.895 246.973 111.57H247.078C247.324 111.215 247.635 110.939 248.01 110.744C248.389 110.545 248.805 110.445 249.258 110.445C249.758 110.445 250.219 110.566 250.641 110.809C251.062 111.051 251.398 111.387 251.648 111.816C251.898 112.242 252.023 112.723 252.023 113.258C252.023 113.789 251.902 114.271 251.66 114.705C251.418 115.139 251.074 115.482 250.629 115.736C250.188 115.99 249.68 116.117 249.105 116.117ZM247.113 113.281C247.113 113.613 247.197 113.926 247.365 114.219C247.537 114.512 247.771 114.748 248.068 114.928C248.369 115.104 248.703 115.191 249.07 115.191C249.43 115.191 249.756 115.105 250.049 114.934C250.342 114.758 250.574 114.523 250.746 114.23C250.918 113.938 251.004 113.617 251.004 113.27C251.004 112.926 250.92 112.609 250.752 112.32C250.588 112.031 250.359 111.801 250.066 111.629C249.777 111.457 249.453 111.371 249.094 111.371C248.73 111.371 248.398 111.461 248.098 111.641C247.797 111.816 247.559 112.051 247.383 112.344C247.207 112.637 247.117 112.949 247.113 113.281Z" fill="#373737"/>
<circle cx="293" cy="112" r="12" fill="#FF7447"/>
<path d="M295.146 108.512V108.453H290.658V107.516H296.236V108.5L292.357 116H291.256L295.146 108.512Z" fill="#373737"/>
</svg>
