<svg width="24" height="24" viewBox="0 0 24 24" fill="none" xmlns="http://www.w3.org/2000/svg">
<path d="M11.8648 0.124049C11.9413 0.0538787 12.0587 0.0538787 12.1352 0.124049L14.9364 2.69401C14.9791 2.73321 15.0367 2.75194 15.0943 2.74534L18.8711 2.31268C18.9742 2.30087 19.0693 2.3699 19.0899 2.47163L19.8455 6.19726C19.857 6.25408 19.8926 6.30311 19.9431 6.33163L23.2529 8.20154C23.3433 8.25259 23.3796 8.3643 23.3365 8.45872L21.7579 11.9169C21.7338 11.9697 21.7338 12.0303 21.7579 12.0831L23.3365 15.5413C23.3796 15.6357 23.3433 15.7474 23.2529 15.7985L19.9431 17.6684C19.8926 17.6969 19.857 17.7459 19.8455 17.8027L19.0899 21.5284C19.0693 21.6301 18.9742 21.6991 18.8711 21.6873L15.0943 21.2547C15.0367 21.2481 14.9791 21.2668 14.9364 21.306L12.1352 23.876C12.0587 23.9461 11.9413 23.9461 11.8648 23.876L9.06363 21.306C9.0209 21.2668 8.96326 21.2481 8.90565 21.2547L5.12888 21.6873C5.02576 21.6991 4.93074 21.6301 4.91011 21.5284L4.1545 17.8027C4.14298 17.7459 4.10735 17.6969 4.05687 17.6684L0.747081 15.7985C0.656711 15.7474 0.620417 15.6357 0.663518 15.5413L2.24209 12.0831C2.26617 12.0303 2.26617 11.9697 2.24209 11.9169L0.663518 8.45872C0.620417 8.3643 0.656711 8.25259 0.747081 8.20154L4.05687 6.33163C4.10735 6.30311 4.14298 6.25408 4.1545 6.19726L4.91011 2.47163C4.93074 2.3699 5.02576 2.30087 5.12888 2.31268L8.90565 2.74534C8.96326 2.75194 9.0209 2.73321 9.06363 2.69401L11.8648 0.124049Z" fill="#A9A9A9"/>
<path d="M7.75391 11.4491L10.9513 14.6466L16.2454 9.35254" stroke="#E6E6E6" stroke-width="2"/>
</svg>
