<svg width="375" height="464" viewBox="0 0 375 464" fill="none" xmlns="http://www.w3.org/2000/svg">
<g clip-path="url(#clip0_2019_69703)">
<path d="M108.725 168.491C109.238 169.13 109.775 169.745 110.336 170.346C112.161 172.285 114.529 175.577 117.59 174.915C119.306 174.546 120.361 172.692 120.409 170.946C120.456 169.201 119.729 167.536 119.016 165.942C120.77 168.771 124.002 170.625 127.344 170.719C127.933 170.734 128.57 170.686 129.032 170.322C129.806 169.717 129.773 168.562 129.669 167.588C129.417 165.228 129.16 162.863 128.908 160.502C130.158 162.503 131.451 164.551 133.338 165.97C135.225 167.389 137.878 168.061 140.003 167.02C143.867 165.128 143.492 159.608 142.531 155.432C144.58 158.601 147.565 162.196 151.287 161.491C153.85 161.004 155.604 158.469 156.008 155.905C156.412 153.341 155.756 150.744 155.109 148.233C155.509 151.227 159.387 152.854 162.178 151.676C164.968 150.498 166.522 147.358 166.66 144.34C166.798 141.322 165.776 138.385 164.692 135.561C158.408 119.152 149.704 103.785 141.034 88.4924C139.889 86.4679 138.705 84.4009 136.927 82.8873C135.149 81.3737 132.635 80.5128 130.434 81.2933C127.154 82.4521 126.018 86.5531 126.251 90.0107C121.464 90.1101 116.701 91.1507 112.313 93.0474C112.399 90.2614 111.933 86.695 109.228 85.9618C107.042 85.3706 103.889 88.2039 102.534 90.0107C97.8665 96.2544 96.2893 104.086 95.4194 111.815C94.1978 122.699 95.6668 132.78 98.2146 143.432C99.7548 149.879 101.575 156.364 104.679 162.262C105.834 164.457 107.17 166.557 108.725 168.487V168.491Z" fill="#FF5B26"/>
<path d="M116.51 104.782C116.496 107.408 116.938 110.037 117.822 112.511C118.017 113.05 118.549 113.415 119.139 113.254C119.666 113.112 120.08 112.488 119.885 111.944C119.058 109.626 118.64 107.237 118.649 104.778C118.649 104.201 118.155 103.713 117.58 103.713C117.004 103.713 116.515 104.201 116.51 104.778V104.782Z" fill="white"/>
<path d="M124.615 103.68C124.63 106.031 125.038 108.377 125.842 110.586C126.032 111.106 126.578 111.518 127.158 111.329C127.677 111.163 128.109 110.581 127.905 110.018C127.139 107.914 126.769 105.87 126.754 103.675C126.754 103.117 126.265 102.588 125.685 102.611C125.105 102.635 124.611 103.079 124.615 103.675V103.68Z" fill="white"/>
<path d="M122.343 112.459L119.772 114.375C118.926 115.004 117.737 115.623 117.695 116.815C117.657 117.908 118.517 118.75 119.159 119.54C119.857 120.405 120.551 121.266 121.25 122.132C121.611 122.581 122.386 122.505 122.762 122.132C123.209 121.687 123.123 121.077 122.762 120.628C122.196 119.928 121.635 119.228 121.07 118.527C120.789 118.177 120.504 117.827 120.223 117.477C120.114 117.34 120.067 117.283 119.972 117.142C119.933 117.08 119.895 116.967 119.843 116.919C119.724 116.806 119.895 116.891 119.834 116.933C119.772 116.976 119.715 117.075 119.857 116.967C119.957 116.891 120.01 116.844 120.166 116.725L121.231 115.931L123.427 114.294C123.888 113.949 124.126 113.376 123.812 112.837C123.546 112.383 122.814 112.109 122.348 112.454L122.343 112.459Z" fill="white"/>
<path d="M131.306 114.32L135.05 111.055" stroke="#FF9587" stroke-width="2" stroke-linecap="round"/>
<path d="M135.557 114.32L139.301 111.055" stroke="#FF9587" stroke-width="2" stroke-linecap="round"/>
</g>
<path d="M75.585 166.405C75.585 156.829 83.3476 149.066 92.9234 149.066H301.247C310.822 149.066 318.585 156.829 318.585 166.405V367.066C318.585 376.455 310.974 384.066 301.585 384.066H92.9234C83.3476 384.066 75.585 376.304 75.585 366.728V166.405Z" fill="#282828"/>
<path d="M65.585 155.407C65.585 145.831 73.3476 138.068 82.9234 138.068H291.247C300.822 138.068 308.585 145.831 308.585 155.407V356.73C308.585 366.306 300.822 374.068 291.247 374.068H82.9234C73.3476 374.068 65.585 366.306 65.585 356.73V155.407Z" fill="black"/>
<circle cx="97.5532" cy="220.804" r="8.12738" fill="#252525"/>
<circle cx="97.5532" cy="310.747" r="8.12738" fill="#252525"/>
<circle cx="97.5532" cy="250.063" r="8.12738" fill="#FF9263"/>
<circle cx="97.5532" cy="340.005" r="8.12738" fill="#FF6635"/>
<circle cx="97.5532" cy="279.321" r="8.12738" fill="#FF6635"/>
<circle cx="133.314" cy="220.804" r="8.12738" fill="#FF5B26"/>
<circle cx="274.188" cy="220.804" r="8.12738" fill="#FF5B26"/>
<circle cx="133.314" cy="310.747" r="8.12738" fill="#FF5B26"/>
<circle cx="274.188" cy="310.747" r="8.12738" fill="#FF5B26"/>
<circle cx="133.314" cy="250.063" r="8.12738" fill="#252525"/>
<circle cx="274.188" cy="250.063" r="8.12738" fill="#FF6635"/>
<circle cx="133.314" cy="340.005" r="8.12738" fill="#FF9263"/>
<circle cx="274.188" cy="340.005" r="8.12738" fill="#FF9263"/>
<circle cx="133.314" cy="279.321" r="8.12738" fill="#252525"/>
<circle cx="274.188" cy="279.321" r="8.12738" fill="#252525"/>
<circle cx="169.075" cy="220.804" r="8.12738" fill="#252525"/>
<circle cx="169.075" cy="310.747" r="8.12738" fill="#252525"/>
<circle cx="169.075" cy="250.063" r="8.12738" fill="#FF5B26"/>
<circle cx="169.075" cy="340.005" r="8.12738" fill="#252525"/>
<circle cx="169.075" cy="279.321" r="8.12738" fill="#FF9263"/>
<circle cx="204.834" cy="220.804" r="8.12738" fill="#FF9263"/>
<circle cx="204.834" cy="310.747" r="8.12738" fill="#252525"/>
<circle cx="204.834" cy="250.063" r="8.12738" fill="#252525"/>
<circle cx="204.834" cy="340.005" r="8.12738" fill="#FF5B26"/>
<circle cx="204.834" cy="279.321" r="8.12738" fill="#FF5B26"/>
<circle cx="239.511" cy="220.804" r="8.12738" fill="#252525"/>
<circle cx="239.511" cy="310.747" r="8.12738" fill="#FF6635"/>
<circle cx="239.511" cy="250.063" r="8.12738" fill="#252525"/>
<circle cx="239.511" cy="340.005" r="8.12738" fill="#252525"/>
<circle cx="239.511" cy="279.321" r="8.12738" fill="#252525"/>
<g filter="url(#filter0_i_2019_69703)">
<circle cx="102.783" cy="151.703" r="5" fill="#373737"/>
</g>
<g filter="url(#filter1_i_2019_69703)">
<circle cx="142.699" cy="151.703" r="5" fill="#373737"/>
</g>
<g filter="url(#filter2_i_2019_69703)">
<circle cx="182.616" cy="151.703" r="5" fill="#373737"/>
</g>
<g filter="url(#filter3_i_2019_69703)">
<circle cx="222.533" cy="151.703" r="5" fill="#373737"/>
</g>
<g filter="url(#filter4_i_2019_69703)">
<circle cx="262.45" cy="151.703" r="5" fill="#373737"/>
</g>
<path d="M117.456 130.276L119.461 128.782L117.456 130.276ZM110.348 125.259L111.092 122.873V122.873L110.348 125.259ZM101.596 125.333L100.812 122.959V122.959L101.596 125.333ZM94.5776 130.469L92.5474 129.01L92.5474 129.01L94.5776 130.469ZM92.0021 138.684L94.5017 138.64L92.0021 138.684ZM94.8638 146.807L92.8853 148.335H92.8853L94.8638 146.807ZM101.355 154.102C102.68 154.49 104.069 153.731 104.457 152.406C104.846 151.081 104.086 149.692 102.761 149.304L101.355 154.102ZM122.675 138.446C122.675 134.966 121.547 131.581 119.461 128.782L115.451 131.77C116.899 133.712 117.675 136.05 117.675 138.446H122.675ZM119.461 128.782C117.375 125.983 114.442 123.916 111.092 122.873L109.605 127.646C111.958 128.379 114.003 129.827 115.451 131.77L119.461 128.782ZM111.092 122.873C107.743 121.829 104.143 121.859 100.812 122.959L102.38 127.707C104.72 126.934 107.251 126.913 109.605 127.646L111.092 122.873ZM100.812 122.959C97.4805 124.06 94.584 126.176 92.5474 129.01L96.6077 131.928C98.021 129.961 100.041 128.48 102.38 127.707L100.812 122.959ZM92.5474 129.01C90.5103 131.845 89.4415 135.248 89.5025 138.728L94.5017 138.64C94.4597 136.245 95.195 133.894 96.6077 131.928L92.5474 129.01ZM89.5025 138.728C89.5634 142.207 90.7508 145.572 92.8853 148.335L96.8423 145.279C95.3609 143.361 94.5437 141.036 94.5017 138.64L89.5025 138.728ZM92.8853 148.335C95.0193 151.098 97.9874 153.115 101.355 154.102L102.761 149.304C100.396 148.61 98.3243 147.197 96.8423 145.279L92.8853 148.335Z" fill="#E6E6E6"/>
<path d="M157.552 130.276L159.556 128.782L157.552 130.276ZM150.444 125.259L151.188 122.873V122.873L150.444 125.259ZM141.692 125.333L140.908 122.959V122.959L141.692 125.333ZM134.673 130.469L132.643 129.01L132.643 129.01L134.673 130.469ZM132.098 138.684L134.597 138.64L132.098 138.684ZM134.96 146.807L132.981 148.335H132.981L134.96 146.807ZM141.451 154.102C142.776 154.49 144.164 153.731 144.553 152.406C144.941 151.081 144.182 149.692 142.857 149.304L141.451 154.102ZM162.771 138.446C162.771 134.966 161.642 131.581 159.556 128.782L155.547 131.77C156.994 133.712 157.771 136.05 157.771 138.446H162.771ZM159.556 128.782C157.471 125.983 154.538 123.916 151.188 122.873L149.7 127.646C152.053 128.379 154.099 129.827 155.547 131.77L159.556 128.782ZM151.188 122.873C147.838 121.829 144.239 121.859 140.908 122.959L142.476 127.707C144.816 126.934 147.347 126.913 149.7 127.646L151.188 122.873ZM140.908 122.959C137.576 124.06 134.68 126.176 132.643 129.01L136.703 131.928C138.117 129.961 140.137 128.48 142.476 127.707L140.908 122.959ZM132.643 129.01C130.606 131.845 129.537 135.248 129.598 138.728L134.597 138.64C134.555 136.245 135.291 133.894 136.703 131.928L132.643 129.01ZM129.598 138.728C129.659 142.207 130.847 145.572 132.981 148.335L136.938 145.279C135.457 143.361 134.639 141.036 134.597 138.64L129.598 138.728ZM132.981 148.335C135.115 151.098 138.083 153.115 141.451 154.102L142.857 149.304C140.491 148.61 138.42 147.197 136.938 145.279L132.981 148.335Z" fill="#E6E6E6"/>
<path d="M197.646 130.276L195.642 131.77V131.77L197.646 130.276ZM190.539 125.259L189.795 127.646L189.795 127.646L190.539 125.259ZM181.787 125.333L182.571 127.707L181.787 125.333ZM174.768 130.469L176.798 131.928L176.798 131.928L174.768 130.469ZM172.193 138.684L174.692 138.64L172.193 138.684ZM175.054 146.807L177.033 145.279L175.054 146.807ZM181.545 154.102C182.87 154.49 184.259 153.731 184.648 152.406C185.036 151.081 184.277 149.692 182.952 149.304L181.545 154.102ZM202.865 138.446C202.865 134.966 201.737 131.581 199.651 128.782L195.642 131.77C197.089 133.712 197.865 136.05 197.865 138.446H202.865ZM199.651 128.782C197.565 125.983 194.633 123.916 191.283 122.873L189.795 127.646C192.148 128.379 194.194 129.827 195.642 131.77L199.651 128.782ZM191.283 122.873C187.933 121.829 184.333 121.859 181.002 122.959L182.571 127.707C184.911 126.934 187.442 126.913 189.795 127.646L191.283 122.873ZM181.002 122.959C177.671 124.06 174.774 126.176 172.738 129.01L176.798 131.928C178.211 129.961 180.231 128.48 182.571 127.707L181.002 122.959ZM172.738 129.01C170.701 131.845 169.632 135.248 169.693 138.728L174.692 138.64C174.65 136.245 175.385 133.894 176.798 131.928L172.738 129.01ZM169.693 138.728C169.754 142.207 170.941 145.572 173.076 148.335L177.033 145.279C175.551 143.361 174.734 141.036 174.692 138.64L169.693 138.728ZM173.076 148.335C175.21 151.098 178.178 153.115 181.545 154.102L182.952 149.304C180.586 148.61 178.515 147.197 177.033 145.279L173.076 148.335Z" fill="#E6E6E6"/>
<path d="M237.741 130.276L239.746 128.782L237.741 130.276ZM230.634 125.259L231.377 122.873V122.873L230.634 125.259ZM221.881 125.333L221.097 122.959V122.959L221.881 125.333ZM214.863 130.469L212.833 129.01L212.833 129.01L214.863 130.469ZM212.287 138.684L214.787 138.64L212.287 138.684ZM215.149 146.807L213.17 148.335H213.17L215.149 146.807ZM221.64 154.102C222.965 154.49 224.354 153.731 224.742 152.406C225.131 151.081 224.371 149.692 223.047 149.304L221.64 154.102ZM242.96 138.446C242.96 134.966 241.832 131.581 239.746 128.782L235.736 131.77C237.184 133.712 237.96 136.05 237.96 138.446H242.96ZM239.746 128.782C237.66 125.983 234.727 123.916 231.377 122.873L229.89 127.646C232.243 128.379 234.289 129.827 235.736 131.77L239.746 128.782ZM231.377 122.873C228.028 121.829 224.428 121.859 221.097 122.959L222.665 127.707C225.005 126.934 227.536 126.913 229.89 127.646L231.377 122.873ZM221.097 122.959C217.766 124.06 214.869 126.176 212.833 129.01L216.893 131.928C218.306 129.961 220.326 128.48 222.665 127.707L221.097 122.959ZM212.833 129.01C210.796 131.845 209.727 135.248 209.788 138.728L214.787 138.64C214.745 136.245 215.48 133.894 216.893 131.928L212.833 129.01ZM209.788 138.728C209.849 142.207 211.036 145.572 213.17 148.335L217.127 145.279C215.646 143.361 214.829 141.036 214.787 138.64L209.788 138.728ZM213.17 148.335C215.304 151.098 218.273 153.115 221.64 154.102L223.047 149.304C220.681 148.61 218.609 147.197 217.127 145.279L213.17 148.335Z" fill="#E6E6E6"/>
<path d="M277.837 130.276L279.841 128.782L277.837 130.276ZM270.729 125.259L271.473 122.873V122.873L270.729 125.259ZM261.977 125.333L261.193 122.959V122.959L261.977 125.333ZM254.958 130.469L252.928 129.01L252.928 129.01L254.958 130.469ZM252.383 138.684L254.883 138.64L252.383 138.684ZM255.245 146.807L253.266 148.335H253.266L255.245 146.807ZM261.736 154.102C263.061 154.49 264.45 153.731 264.838 152.406C265.226 151.081 264.467 149.692 263.142 149.304L261.736 154.102ZM283.056 138.446C283.056 134.966 281.927 131.581 279.841 128.782L275.832 131.77C277.279 133.712 278.056 136.05 278.056 138.446H283.056ZM279.841 128.782C277.756 125.983 274.823 123.916 271.473 122.873L269.985 127.646C272.338 128.379 274.384 129.827 275.832 131.77L279.841 128.782ZM271.473 122.873C268.124 121.829 264.524 121.859 261.193 122.959L262.761 127.707C265.101 126.934 267.632 126.913 269.985 127.646L271.473 122.873ZM261.193 122.959C257.861 124.06 254.965 126.176 252.928 129.01L256.989 131.928C258.402 129.961 260.422 128.48 262.761 127.707L261.193 122.959ZM252.928 129.01C250.891 131.845 249.822 135.248 249.883 138.728L254.883 138.64C254.841 136.245 255.576 133.894 256.989 131.928L252.928 129.01ZM249.883 138.728C249.944 142.207 251.132 145.572 253.266 148.335L257.223 145.279C255.742 143.361 254.925 141.036 254.883 138.64L249.883 138.728ZM253.266 148.335C255.4 151.098 258.368 153.115 261.736 154.102L263.142 149.304C260.777 148.61 258.705 147.197 257.223 145.279L253.266 148.335Z" fill="#E6E6E6"/>
<g filter="url(#filter5_d_2019_69703)">
<circle cx="304.902" cy="340.874" r="22" fill="#FF5B26"/>
<path d="M316.555 337.917H315.398L316.365 334.204C316.396 334.083 316.4 333.955 316.375 333.832C316.35 333.709 316.297 333.593 316.22 333.493C316.143 333.394 316.044 333.313 315.931 333.258C315.818 333.202 315.694 333.174 315.568 333.174H314.074C313.891 333.174 313.714 333.236 313.57 333.348C313.426 333.46 313.323 333.618 313.278 333.795L312.204 337.917H308.102L306.814 333.753C306.763 333.588 306.661 333.442 306.522 333.338C306.383 333.234 306.215 333.176 306.041 333.174H303.769C303.595 333.176 303.427 333.234 303.288 333.338C303.149 333.442 303.047 333.588 302.996 333.753L301.708 337.917H297.596L296.522 333.795C296.475 333.618 296.372 333.462 296.227 333.35C296.083 333.239 295.905 333.179 295.723 333.179H294.231C294.105 333.179 293.981 333.208 293.868 333.263C293.755 333.318 293.656 333.399 293.579 333.498C293.502 333.598 293.449 333.714 293.423 333.837C293.398 333.96 293.401 334.088 293.433 334.209L294.401 337.917H293.252C293.004 337.917 292.766 338.015 292.59 338.19C292.414 338.366 292.315 338.604 292.314 338.852V340.078C292.314 340.327 292.413 340.566 292.589 340.741C292.765 340.917 293.004 341.016 293.252 341.016H295.208L297.011 347.957C297.056 348.133 297.159 348.29 297.303 348.401C297.448 348.513 297.625 348.573 297.807 348.572H301.033C301.206 348.569 301.374 348.512 301.513 348.408C301.652 348.304 301.754 348.158 301.806 347.993L303.962 341.016H305.825L307.981 347.993C308.033 348.161 308.137 348.308 308.279 348.412C308.42 348.516 308.591 348.573 308.767 348.572H311.987C312.168 348.573 312.345 348.514 312.489 348.404C312.633 348.294 312.736 348.139 312.783 347.964L314.587 341.024H316.55C316.799 341.024 317.037 340.925 317.213 340.749C317.389 340.573 317.488 340.335 317.488 340.086V338.86C317.488 338.737 317.465 338.614 317.418 338.5C317.372 338.386 317.303 338.283 317.217 338.195C317.13 338.107 317.027 338.038 316.914 337.99C316.8 337.942 316.678 337.917 316.555 337.917ZM299.809 344.03C299.788 344.098 299.746 344.156 299.689 344.197C299.632 344.238 299.563 344.26 299.492 344.258C299.422 344.257 299.354 344.232 299.299 344.189C299.243 344.146 299.204 344.085 299.186 344.017L298.413 341.016H300.749L299.809 344.03ZM310.63 344.017C310.612 344.086 310.573 344.147 310.518 344.191C310.463 344.234 310.395 344.259 310.324 344.261C310.254 344.262 310.184 344.24 310.128 344.199C310.071 344.157 310.029 344.098 310.009 344.03L309.076 341.016H311.413L310.63 344.017Z" fill="#FFE6C1"/>
</g>
<g filter="url(#filter6_d_2019_69703)">
<circle cx="63.1611" cy="156.703" r="20" fill="#FF9F2C"/>
<path d="M73.7548 154.015H72.7032L73.5815 150.64C73.6105 150.529 73.6138 150.414 73.591 150.301C73.5682 150.189 73.52 150.084 73.4501 149.994C73.3801 149.903 73.2904 149.83 73.1877 149.779C73.085 149.729 72.9721 149.703 72.8577 149.703H71.4993C71.3332 149.704 71.1719 149.759 71.0409 149.862C70.91 149.964 70.8166 150.107 70.7756 150.268L69.7989 154.015H66.0703L64.8992 150.23C64.8527 150.079 64.7597 149.947 64.6335 149.852C64.5073 149.758 64.3543 149.706 64.1966 149.703H62.1308C61.9731 149.706 61.8201 149.758 61.6939 149.852C61.5677 149.947 61.4747 150.079 61.4282 150.23L60.2571 154.015H56.5191L55.5425 150.268C55.5005 150.107 55.4064 149.965 55.275 149.864C55.1436 149.762 54.9823 149.708 54.8164 149.708H53.4603C53.3459 149.708 53.233 149.734 53.1302 149.784C53.0275 149.835 52.9376 149.908 52.8675 149.998C52.7974 150.089 52.749 150.194 52.7259 150.306C52.7028 150.418 52.7056 150.534 52.7343 150.645L53.6149 154.015H52.5703C52.3446 154.015 52.1281 154.104 51.9683 154.264C51.8085 154.423 51.7184 154.639 51.7178 154.865V155.98C51.7178 156.206 51.8076 156.423 51.9675 156.583C52.1274 156.743 52.3442 156.833 52.5703 156.833H54.348L55.9875 163.142C56.0286 163.303 56.1221 163.445 56.2532 163.546C56.3843 163.648 56.5455 163.702 56.7112 163.702H59.6435C59.8012 163.699 59.954 163.647 60.0801 163.552C60.2063 163.458 60.2993 163.326 60.3461 163.175L62.3065 156.833H63.9998L65.9602 163.175C66.0073 163.328 66.1021 163.461 66.2306 163.556C66.3592 163.651 66.5148 163.702 66.6745 163.702H69.6022C69.7669 163.702 69.9271 163.649 70.058 163.549C70.1889 163.449 70.2831 163.308 70.3259 163.149L71.9654 156.84H73.7501C73.9762 156.84 74.193 156.75 74.3529 156.59C74.5128 156.43 74.6026 156.213 74.6026 155.987V154.872C74.6032 154.76 74.5818 154.649 74.5395 154.546C74.4972 154.442 74.435 154.348 74.3562 154.268C74.2775 154.188 74.1839 154.125 74.0807 154.082C73.9775 154.038 73.8667 154.016 73.7548 154.015ZM58.531 159.573C58.5119 159.634 58.4736 159.687 58.4217 159.724C58.3698 159.762 58.3071 159.781 58.2432 159.78C58.1793 159.779 58.1175 159.757 58.0672 159.717C58.0169 159.678 57.9807 159.623 57.9642 159.561L57.2616 156.833H59.3859L58.531 159.573ZM68.3679 159.561C68.3522 159.623 68.3165 159.679 68.2663 159.718C68.2161 159.758 68.1542 159.781 68.0901 159.782C68.026 159.783 67.9633 159.764 67.9115 159.726C67.8597 159.688 67.8217 159.634 67.8034 159.573L66.9556 156.833H69.0799L68.3679 159.561Z" fill="#FFF1C0"/>
</g>
<circle cx="43.1616" cy="185.609" r="2.74951" fill="#FFE6C1"/>
<circle cx="318.585" cy="284.56" r="2.88867" fill="#FF5B26"/>
<circle cx="52" cy="251.609" r="4" fill="#FFB256"/>
<path d="M254.971 193.497C249.598 193.497 246.396 189.34 246.411 182.043C246.396 174.776 249.629 170.588 254.971 170.588C260.314 170.588 263.532 174.776 263.532 182.043C263.532 189.356 260.329 193.497 254.971 193.497ZM250.445 182.043C250.445 187.4 252.169 190.126 254.971 190.141C257.758 190.126 259.498 187.4 259.498 182.043C259.483 176.731 257.758 173.929 254.971 173.913C252.185 173.929 250.46 176.731 250.445 182.043ZM267.104 193.189L276.773 174.406V174.252H265.564V170.896H280.93V174.314L271.261 193.189H267.104Z" fill="#C6C6C6"/>
<path d="M59.5497 190.91C59.8354 189.176 62.3293 189.176 62.615 190.91L63.4987 196.275L68.8638 197.159C70.5983 197.445 70.5983 199.939 68.8638 200.224L63.4987 201.108L62.615 206.473C62.3293 208.208 59.8354 208.208 59.5497 206.473L58.666 201.108L53.3008 200.224C51.5664 199.939 51.5664 197.445 53.3008 197.159L58.666 196.275L59.5497 190.91Z" fill="white"/>
<defs>
<filter id="filter0_i_2019_69703" x="97.7832" y="146.703" width="12" height="12" filterUnits="userSpaceOnUse" color-interpolation-filters="sRGB">
<feFlood flood-opacity="0" result="BackgroundImageFix"/>
<feBlend mode="normal" in="SourceGraphic" in2="BackgroundImageFix" result="shape"/>
<feColorMatrix in="SourceAlpha" type="matrix" values="0 0 0 0 0 0 0 0 0 0 0 0 0 0 0 0 0 0 127 0" result="hardAlpha"/>
<feOffset dx="2" dy="2"/>
<feGaussianBlur stdDeviation="1"/>
<feComposite in2="hardAlpha" operator="arithmetic" k2="-1" k3="1"/>
<feColorMatrix type="matrix" values="0 0 0 0 0 0 0 0 0 0 0 0 0 0 0 0 0 0 0.25 0"/>
<feBlend mode="normal" in2="shape" result="effect1_innerShadow_2019_69703"/>
</filter>
<filter id="filter1_i_2019_69703" x="137.699" y="146.703" width="12" height="12" filterUnits="userSpaceOnUse" color-interpolation-filters="sRGB">
<feFlood flood-opacity="0" result="BackgroundImageFix"/>
<feBlend mode="normal" in="SourceGraphic" in2="BackgroundImageFix" result="shape"/>
<feColorMatrix in="SourceAlpha" type="matrix" values="0 0 0 0 0 0 0 0 0 0 0 0 0 0 0 0 0 0 127 0" result="hardAlpha"/>
<feOffset dx="2" dy="2"/>
<feGaussianBlur stdDeviation="1"/>
<feComposite in2="hardAlpha" operator="arithmetic" k2="-1" k3="1"/>
<feColorMatrix type="matrix" values="0 0 0 0 0 0 0 0 0 0 0 0 0 0 0 0 0 0 0.25 0"/>
<feBlend mode="normal" in2="shape" result="effect1_innerShadow_2019_69703"/>
</filter>
<filter id="filter2_i_2019_69703" x="177.616" y="146.703" width="12" height="12" filterUnits="userSpaceOnUse" color-interpolation-filters="sRGB">
<feFlood flood-opacity="0" result="BackgroundImageFix"/>
<feBlend mode="normal" in="SourceGraphic" in2="BackgroundImageFix" result="shape"/>
<feColorMatrix in="SourceAlpha" type="matrix" values="0 0 0 0 0 0 0 0 0 0 0 0 0 0 0 0 0 0 127 0" result="hardAlpha"/>
<feOffset dx="2" dy="2"/>
<feGaussianBlur stdDeviation="1"/>
<feComposite in2="hardAlpha" operator="arithmetic" k2="-1" k3="1"/>
<feColorMatrix type="matrix" values="0 0 0 0 0 0 0 0 0 0 0 0 0 0 0 0 0 0 0.25 0"/>
<feBlend mode="normal" in2="shape" result="effect1_innerShadow_2019_69703"/>
</filter>
<filter id="filter3_i_2019_69703" x="217.533" y="146.703" width="12" height="12" filterUnits="userSpaceOnUse" color-interpolation-filters="sRGB">
<feFlood flood-opacity="0" result="BackgroundImageFix"/>
<feBlend mode="normal" in="SourceGraphic" in2="BackgroundImageFix" result="shape"/>
<feColorMatrix in="SourceAlpha" type="matrix" values="0 0 0 0 0 0 0 0 0 0 0 0 0 0 0 0 0 0 127 0" result="hardAlpha"/>
<feOffset dx="2" dy="2"/>
<feGaussianBlur stdDeviation="1"/>
<feComposite in2="hardAlpha" operator="arithmetic" k2="-1" k3="1"/>
<feColorMatrix type="matrix" values="0 0 0 0 0 0 0 0 0 0 0 0 0 0 0 0 0 0 0.25 0"/>
<feBlend mode="normal" in2="shape" result="effect1_innerShadow_2019_69703"/>
</filter>
<filter id="filter4_i_2019_69703" x="257.45" y="146.703" width="12" height="12" filterUnits="userSpaceOnUse" color-interpolation-filters="sRGB">
<feFlood flood-opacity="0" result="BackgroundImageFix"/>
<feBlend mode="normal" in="SourceGraphic" in2="BackgroundImageFix" result="shape"/>
<feColorMatrix in="SourceAlpha" type="matrix" values="0 0 0 0 0 0 0 0 0 0 0 0 0 0 0 0 0 0 127 0" result="hardAlpha"/>
<feOffset dx="2" dy="2"/>
<feGaussianBlur stdDeviation="1"/>
<feComposite in2="hardAlpha" operator="arithmetic" k2="-1" k3="1"/>
<feColorMatrix type="matrix" values="0 0 0 0 0 0 0 0 0 0 0 0 0 0 0 0 0 0 0.25 0"/>
<feBlend mode="normal" in2="shape" result="effect1_innerShadow_2019_69703"/>
</filter>
<filter id="filter5_d_2019_69703" x="270.902" y="310.874" width="68" height="68" filterUnits="userSpaceOnUse" color-interpolation-filters="sRGB">
<feFlood flood-opacity="0" result="BackgroundImageFix"/>
<feColorMatrix in="SourceAlpha" type="matrix" values="0 0 0 0 0 0 0 0 0 0 0 0 0 0 0 0 0 0 127 0" result="hardAlpha"/>
<feOffset dy="4"/>
<feGaussianBlur stdDeviation="6"/>
<feComposite in2="hardAlpha" operator="out"/>
<feColorMatrix type="matrix" values="0 0 0 0 0 0 0 0 0 0 0 0 0 0 0 0 0 0 0.3 0"/>
<feBlend mode="normal" in2="BackgroundImageFix" result="effect1_dropShadow_2019_69703"/>
<feBlend mode="normal" in="SourceGraphic" in2="effect1_dropShadow_2019_69703" result="shape"/>
</filter>
<filter id="filter6_d_2019_69703" x="31.1611" y="128.703" width="64" height="64" filterUnits="userSpaceOnUse" color-interpolation-filters="sRGB">
<feFlood flood-opacity="0" result="BackgroundImageFix"/>
<feColorMatrix in="SourceAlpha" type="matrix" values="0 0 0 0 0 0 0 0 0 0 0 0 0 0 0 0 0 0 127 0" result="hardAlpha"/>
<feOffset dy="4"/>
<feGaussianBlur stdDeviation="6"/>
<feComposite in2="hardAlpha" operator="out"/>
<feColorMatrix type="matrix" values="0 0 0 0 0 0 0 0 0 0 0 0 0 0 0 0 0 0 0.3 0"/>
<feBlend mode="normal" in2="BackgroundImageFix" result="effect1_dropShadow_2019_69703"/>
<feBlend mode="normal" in="SourceGraphic" in2="effect1_dropShadow_2019_69703" result="shape"/>
</filter>
<clipPath id="clip0_2019_69703">
<rect width="74" height="94" fill="white" transform="translate(92 81)"/>
</clipPath>
</defs>
</svg>
