<svg width="160" height="160" viewBox="0 0 160 160" fill="none" xmlns="http://www.w3.org/2000/svg">
<path d="M33.5609 103.937H10.356C7.64874 103.937 5.4541 101.742 5.4541 99.0353V69.7679C5.4541 58.6534 11.7449 57 19.5075 57C27.2701 57 33.5609 58.6534 33.5609 69.7679C33.5609 58.6583 39.8516 57 47.6143 57C55.3769 57 61.6677 58.6534 61.6677 69.7679V69.7582V96.5746C61.6677 100.635 58.3757 103.927 54.3149 103.927H33.5609" fill="#FF5B26"/>
<path d="M33.5609 103.937H10.356C7.64874 103.937 5.4541 101.742 5.4541 99.0353V69.7679C5.4541 58.6534 11.7449 57 19.5075 57C27.2701 57 33.5609 58.6534 33.5609 69.7679C33.5609 58.6583 39.8516 57 47.6143 57C55.3769 57 61.6677 58.6534 61.6677 69.7679V69.7582V96.5746C61.6677 100.635 58.3757 103.927 54.3149 103.927H33.5609" stroke="#212121" stroke-width="3.6764" stroke-miterlimit="10" stroke-linecap="round"/>
<path d="M41.4933 88.267L33.5605 103.927H61.6673V69.7582V69.7679C61.6673 58.6583 55.3766 57 47.6139 57C39.8513 57 33.5605 58.6534 33.5605 69.7679C33.5605 72.8671 34.0512 75.806 34.9256 78.4292" stroke="#212121" stroke-width="3.6764" stroke-miterlimit="10" stroke-linecap="round"/>
<path d="M21.8441 88.267V103.932H5.4541V69.7679C5.4541 58.6534 11.7449 57 19.5075 57C27.2701 57 33.5609 58.6534 33.5609 69.7679" stroke="#212121" stroke-width="3.6764" stroke-miterlimit="10" stroke-linecap="round"/>
<path d="M80.1283 103.937H56.9233C54.2161 103.937 52.0215 101.742 52.0215 99.0353V69.7679C52.0215 58.6534 58.3122 57 66.0749 57C73.8375 57 80.1283 58.6534 80.1283 69.7679C80.1283 58.6583 86.419 57 94.1817 57C101.944 57 108.235 58.6534 108.235 69.7679V69.7582V96.5746C108.235 100.635 104.943 103.927 100.882 103.927H80.1283" fill="#FF5B26"/>
<path d="M80.1283 103.937H56.9233C54.2161 103.937 52.0215 101.742 52.0215 99.0353V69.7679C52.0215 58.6534 58.3122 57 66.0749 57C73.8375 57 80.1283 58.6534 80.1283 69.7679C80.1283 58.6583 86.419 57 94.1817 57C101.944 57 108.235 58.6534 108.235 69.7679V69.7582V96.5746C108.235 100.635 104.943 103.927 100.882 103.927H80.1283" stroke="#212121" stroke-width="3.6764" stroke-miterlimit="10" stroke-linecap="round"/>
<path d="M88.0607 88.267L80.1279 103.927H108.235V69.7582V69.7679C108.235 58.6583 101.944 57 94.1813 57C86.4187 57 80.1279 58.6534 80.1279 69.7679C80.1279 72.8671 80.6186 75.806 81.4929 78.4292" stroke="#212121" stroke-width="3.6764" stroke-miterlimit="10" stroke-linecap="round"/>
<path d="M68.4114 88.267V103.932H52.0215V69.7679C52.0215 58.6534 58.3122 57 66.0749 57C73.8375 57 80.1283 58.6534 80.1283 69.7679" stroke="#212121" stroke-width="3.6764" stroke-miterlimit="10" stroke-linecap="round"/>
<path d="M126.696 103.937H103.491C100.784 103.937 98.5894 101.742 98.5894 99.0353V69.7679C98.5894 58.6534 104.88 57 112.643 57C120.405 57 126.696 58.6534 126.696 69.7679C126.696 58.6583 132.987 57 140.75 57C148.512 57 154.803 58.6534 154.803 69.7679V69.7582V96.5746C154.803 100.635 151.511 103.927 147.45 103.927H126.696" fill="#FF5B26"/>
<path d="M126.696 103.937H103.491C100.784 103.937 98.5894 101.742 98.5894 99.0353V69.7679C98.5894 58.6534 104.88 57 112.643 57C120.405 57 126.696 58.6534 126.696 69.7679C126.696 58.6583 132.987 57 140.75 57C148.512 57 154.803 58.6534 154.803 69.7679V69.7582V96.5746C154.803 100.635 151.511 103.927 147.45 103.927H126.696" stroke="#212121" stroke-width="3.6764" stroke-miterlimit="10" stroke-linecap="round"/>
<path d="M134.629 88.267L126.696 103.927H154.803V69.7582V69.7679C154.803 58.6583 148.512 57 140.75 57C132.987 57 126.696 58.6534 126.696 69.7679C126.696 72.8671 127.187 75.806 128.061 78.4292" stroke="#212121" stroke-width="3.6764" stroke-miterlimit="10" stroke-linecap="round"/>
<path d="M114.979 88.267V103.932H98.5894V69.7679C98.5894 58.6534 104.88 57 112.643 57C120.405 57 126.696 58.6534 126.696 69.7679" stroke="#212121" stroke-width="3.6764" stroke-miterlimit="10" stroke-linecap="round"/>
</svg>
