<svg width="1024" height="1024" viewBox="0 0 1024 1024" fill="none" xmlns="http://www.w3.org/2000/svg">
<rect width="1024" height="1024" fill="#212121"/>
<path d="M267.3 636.081H145.571C131.37 636.081 119.857 624.568 119.857 610.366V456.835C119.857 398.53 152.857 389.857 193.578 389.857C234.3 389.857 267.3 398.53 267.3 456.835C267.3 398.556 300.3 389.857 341.022 389.857C381.743 389.857 414.743 398.53 414.743 456.835V456.784V597.458C414.743 618.761 397.474 636.03 376.172 636.03H267.3" fill="#FF5B26"/>
<path d="M267.3 636.081H145.571C131.37 636.081 119.857 624.568 119.857 610.366V456.835C119.857 398.53 152.857 389.857 193.578 389.857C234.3 389.857 267.3 398.53 267.3 456.835C267.3 398.556 300.3 389.857 341.022 389.857C381.743 389.857 414.743 398.53 414.743 456.835V456.784V597.458C414.743 618.761 397.474 636.03 376.172 636.03H267.3" stroke="#212121" stroke-width="19.2857" stroke-miterlimit="10" stroke-linecap="round"/>
<path d="M308.914 553.878L267.3 636.03H414.743V456.784V456.835C414.743 398.556 381.743 389.857 341.021 389.857C300.3 389.857 267.3 398.53 267.3 456.835C267.3 473.093 269.874 488.51 274.46 502.271" stroke="#212121" stroke-width="19.2857" stroke-miterlimit="10" stroke-linecap="round"/>
<path d="M205.836 553.878V636.055H158.428C137.126 636.055 119.857 618.786 119.857 597.484V456.835C119.857 398.53 152.857 389.857 193.578 389.857C234.3 389.857 267.3 398.53 267.3 456.835" stroke="#212121" stroke-width="19.2857" stroke-miterlimit="10" stroke-linecap="round"/>
<path d="M511.586 636.081H389.857C375.656 636.081 364.143 624.568 364.143 610.366V456.835C364.143 398.53 397.143 389.857 437.865 389.857C478.586 389.857 511.586 398.53 511.586 456.835C511.586 398.556 544.586 389.857 585.308 389.857C626.029 389.857 659.029 398.53 659.029 456.835V456.784V597.458C659.029 618.761 641.76 636.03 620.458 636.03H511.586" fill="#FF5B26"/>
<path d="M511.586 636.081H389.857C375.656 636.081 364.143 624.568 364.143 610.366V456.835C364.143 398.53 397.143 389.857 437.865 389.857C478.586 389.857 511.586 398.53 511.586 456.835C511.586 398.556 544.586 389.857 585.308 389.857C626.029 389.857 659.029 398.53 659.029 456.835V456.784V597.458C659.029 618.761 641.76 636.03 620.458 636.03H511.586" stroke="#212121" stroke-width="19.2857" stroke-miterlimit="10" stroke-linecap="round"/>
<path d="M553.199 553.878L511.585 636.03H659.029V456.784V456.835C659.029 398.556 626.028 389.857 585.307 389.857C544.586 389.857 511.585 398.53 511.585 456.835C511.585 473.093 514.159 488.51 518.746 502.271" stroke="#212121" stroke-width="19.2857" stroke-miterlimit="10" stroke-linecap="round"/>
<path d="M450.122 553.878V636.055H364.143V456.835C364.143 398.53 397.143 389.857 437.865 389.857C478.586 389.857 511.586 398.53 511.586 456.835" stroke="#212121" stroke-width="19.2857" stroke-miterlimit="10" stroke-linecap="round"/>
<path d="M755.872 636.081H634.143C619.941 636.081 608.429 624.568 608.429 610.366V456.835C608.429 398.53 641.429 389.857 682.15 389.857C722.872 389.857 755.872 398.53 755.872 456.835C755.872 398.556 788.872 389.857 829.593 389.857C870.315 389.857 903.315 398.53 903.315 456.835V456.784V597.458C903.315 618.761 886.046 636.03 864.743 636.03H755.872" fill="#FF5B26"/>
<path d="M755.872 636.081H634.143C619.941 636.081 608.429 624.568 608.429 610.366V456.835C608.429 398.53 641.429 389.857 682.15 389.857C722.872 389.857 755.872 398.53 755.872 456.835C755.872 398.556 788.872 389.857 829.593 389.857C870.315 389.857 903.315 398.53 903.315 456.835V456.784V597.458C903.315 618.761 886.046 636.03 864.744 636.03H755.872" stroke="#212121" stroke-width="19.2857" stroke-miterlimit="10" stroke-linecap="round"/>
<path d="M797.485 553.878L755.872 636.03H864.743C886.046 636.03 903.315 618.761 903.315 597.458V456.784V456.835C903.315 398.556 870.315 389.857 829.593 389.857C788.872 389.857 755.872 398.53 755.872 456.835C755.872 473.093 758.445 488.51 763.032 502.271" stroke="#212121" stroke-width="19.2857" stroke-miterlimit="10" stroke-linecap="round"/>
<path d="M694.407 553.878V636.055H608.429V456.835C608.429 398.53 641.429 389.857 682.15 389.857C722.872 389.857 755.872 398.53 755.872 456.835" stroke="#212121" stroke-width="19.2857" stroke-miterlimit="10" stroke-linecap="round"/>
</svg>
