<svg width="17" height="16" viewBox="0 0 17 16" fill="none" xmlns="http://www.w3.org/2000/svg">
<path d="M7.61137 0.43486C7.90727 -0.144954 8.73575 -0.144953 9.03165 0.434862L11.0051 4.30188C11.121 4.52888 11.3383 4.68682 11.59 4.72685L15.8776 5.40875C16.5205 5.511 16.7765 6.29893 16.3165 6.75952L13.2486 9.83137C13.0685 10.0117 12.9855 10.2672 13.0252 10.519L13.7016 14.8074C13.803 15.4504 13.1327 15.9374 12.5526 15.6423L8.68301 13.6738C8.45586 13.5582 8.18716 13.5582 7.96001 13.6738L4.09046 15.6423C3.51027 15.9374 2.84002 15.4504 2.94143 14.8074L3.61784 10.519C3.65755 10.2672 3.57452 10.0117 3.39442 9.83137L0.326507 6.75952C-0.133492 6.29893 0.122522 5.511 0.765396 5.40875L5.05299 4.72685C5.30467 4.68682 5.52206 4.52888 5.6379 4.30188L7.61137 0.43486Z" fill="#A9A9A9"/>
</svg>
